<svg t="1645000145440" class="icon" viewBox="0 0 1024 1024" version="1.1" xmlns="http://www.w3.org/2000/svg" p-id="3668" width="48" height="48"><path d="M 776.378 351.884 c -57.7164 -102.4 -167.564 -165.702 -288.582 -165.702 c -78.1964 0 -156.393 29.7891 -215.971 80.0582 c -53.9927 46.5455 -91.2291 109.847 -106.124 178.735 C 80.0582 471.04 18.6182 549.236 18.6182 638.604 c 0 98.6764 74.4727 182.458 171.287 197.353 v 1.86182 h 567.855 C 893.673 837.818 1005.38 727.971 1005.38 593.92 c 0 -126.604 -100.538 -232.727 -229.004 -242.036 Z m -18.6182 430.08 H 219.695 c -80.0582 -1.86182 -143.36 -65.1636 -143.36 -143.36 c 0 -68.8873 50.2691 -128.465 119.156 -141.498 l 20.48 -3.72364 l 3.72364 -20.48 c 9.30909 -63.3018 40.96 -121.018 91.2291 -163.84 c 48.4073 -42.8218 111.709 -67.0255 176.873 -67.0255 c 89.3673 0 173.149 42.8218 223.418 113.571 c -59.5782 11.1709 -115.433 44.6836 -152.669 93.0909 c -9.30909 13.0327 -7.44727 29.7891 5.58545 39.0982 s 29.7891 7.44727 39.0982 -5.58545 c 37.2364 -48.4073 91.2291 -76.3345 152.669 -76.3345 c 104.262 0 189.905 83.7818 189.905 186.182 c 1.86182 106.124 -81.92 189.905 -188.044 189.905 Z" fill="#ffffff" p-id="3669"></path></svg>
